<svg width="140" height="33" viewBox="0 0 140 33" fill="none" xmlns="http://www.w3.org/2000/svg">
<circle cx="15.5" cy="17.5" r="15.5" fill="#FEFEFE"/>
<circle cx="20.5" cy="15.5" r="14.5" stroke="#C6C6C6" stroke-width="2"/>
<path d="M56.368 12.72V20.192C56.368 21.4613 56.0213 22.432 55.328 23.104C54.6453 23.776 53.7013 24.112 52.496 24.112C51.216 24.112 50.192 23.7547 49.424 23.04C48.6667 22.3253 48.288 21.296 48.288 19.952H51.392C51.4027 20.8373 51.728 21.28 52.368 21.28C52.944 21.28 53.232 20.9173 53.232 20.192V12.72H56.368ZM62.4158 24.112C61.5198 24.112 60.7144 23.9253 59.9998 23.552C59.2958 23.1787 58.7411 22.6453 58.3358 21.952C57.9304 21.2587 57.7278 20.4427 57.7278 19.504C57.7278 18.576 57.9304 17.7653 58.3358 17.072C58.7518 16.3787 59.3118 15.8453 60.0158 15.472C60.7304 15.0987 61.5358 14.912 62.4318 14.912C63.3278 14.912 64.1278 15.0987 64.8318 15.472C65.5464 15.8453 66.1064 16.3787 66.5118 17.072C66.9278 17.7653 67.1358 18.576 67.1358 19.504C67.1358 20.432 66.9278 21.248 66.5118 21.952C66.1064 22.6453 65.5464 23.1787 64.8318 23.552C64.1171 23.9253 63.3118 24.112 62.4158 24.112ZM62.4158 21.392C62.8531 21.392 63.2158 21.232 63.5038 20.912C63.8024 20.5813 63.9518 20.112 63.9518 19.504C63.9518 18.896 63.8024 18.432 63.5038 18.112C63.2158 17.792 62.8584 17.632 62.4318 17.632C62.0051 17.632 61.6478 17.792 61.3598 18.112C61.0718 18.432 60.9278 18.896 60.9278 19.504C60.9278 20.1227 61.0664 20.592 61.3438 20.912C61.6211 21.232 61.9784 21.392 62.4158 21.392ZM74.3156 14.944C75.3396 14.944 76.1503 15.2907 76.7476 15.984C77.3556 16.6667 77.6596 17.5947 77.6596 18.768V24H74.5236V19.184C74.5236 18.672 74.3903 18.272 74.1236 17.984C73.857 17.6853 73.4996 17.536 73.0516 17.536C72.5823 17.536 72.2143 17.6853 71.9476 17.984C71.681 18.272 71.5476 18.672 71.5476 19.184V24H68.4116V12.16H71.5476V16.304C71.825 15.8987 72.1983 15.5733 72.6676 15.328C73.1476 15.072 73.697 14.944 74.3156 14.944ZM85.2524 14.944C86.287 14.944 87.1084 15.2907 87.7164 15.984C88.3244 16.6667 88.6284 17.5947 88.6284 18.768V24H85.4924V19.184C85.4924 18.672 85.359 18.272 85.0924 17.984C84.8257 17.6853 84.4684 17.536 84.0204 17.536C83.551 17.536 83.183 17.6853 82.9164 17.984C82.6497 18.272 82.5164 18.672 82.5164 19.184V24H79.3804V15.024H82.5164V16.304C82.7937 15.8987 83.167 15.5733 83.6364 15.328C84.1057 15.072 84.6444 14.944 85.2524 14.944ZM98.8196 24.112C97.7636 24.112 96.793 23.8667 95.9076 23.376C95.0223 22.8747 94.3183 22.1867 93.7956 21.312C93.2836 20.4267 93.0276 19.4293 93.0276 18.32C93.0276 17.2107 93.2836 16.2187 93.7956 15.344C94.3183 14.4587 95.0223 13.7707 95.9076 13.28C96.793 12.7893 97.7636 12.544 98.8196 12.544C99.8863 12.544 100.857 12.7893 101.732 13.28C102.617 13.7707 103.316 14.4587 103.828 15.344C104.34 16.2187 104.596 17.2107 104.596 18.32C104.596 19.4293 104.34 20.4267 103.828 21.312C103.316 22.1867 102.617 22.8747 101.732 23.376C100.846 23.8667 99.8756 24.112 98.8196 24.112ZM98.8196 21.2C99.6196 21.2 100.249 20.9387 100.708 20.416C101.177 19.8933 101.412 19.1947 101.412 18.32C101.412 17.424 101.177 16.72 100.708 16.208C100.249 15.6853 99.6196 15.424 98.8196 15.424C98.009 15.424 97.3743 15.6853 96.9156 16.208C96.457 16.72 96.2276 17.424 96.2276 18.32C96.2276 19.2053 96.457 19.9093 96.9156 20.432C97.3743 20.944 98.009 21.2 98.8196 21.2ZM109.829 24.112C109.019 24.112 108.293 23.9787 107.653 23.712C107.024 23.4347 106.523 23.0613 106.149 22.592C105.787 22.112 105.584 21.5733 105.541 20.976H108.581C108.624 21.264 108.757 21.488 108.981 21.648C109.205 21.808 109.483 21.888 109.813 21.888C110.069 21.888 110.272 21.8347 110.421 21.728C110.571 21.6213 110.645 21.4827 110.645 21.312C110.645 21.088 110.523 20.9227 110.277 20.816C110.032 20.7093 109.627 20.592 109.061 20.464C108.421 20.336 107.888 20.192 107.461 20.032C107.035 19.872 106.661 19.6107 106.341 19.248C106.032 18.8853 105.877 18.3947 105.877 17.776C105.877 17.2427 106.021 16.7627 106.309 16.336C106.597 15.8987 107.019 15.552 107.573 15.296C108.139 15.04 108.816 14.912 109.605 14.912C110.779 14.912 111.701 15.2 112.373 15.776C113.045 16.352 113.435 17.1093 113.541 18.048H110.709C110.656 17.76 110.528 17.5413 110.325 17.392C110.133 17.232 109.872 17.152 109.541 17.152C109.285 17.152 109.088 17.2 108.949 17.296C108.821 17.392 108.757 17.5253 108.757 17.696C108.757 17.9093 108.88 18.0747 109.125 18.192C109.371 18.2987 109.765 18.4107 110.309 18.528C110.96 18.6667 111.499 18.8213 111.925 18.992C112.363 19.1627 112.741 19.44 113.061 19.824C113.392 20.1973 113.557 20.7093 113.557 21.36C113.557 21.8827 113.403 22.352 113.093 22.768C112.795 23.184 112.363 23.5147 111.797 23.76C111.243 23.9947 110.587 24.112 109.829 24.112ZM123.675 19.408C123.675 19.6533 123.659 19.8987 123.627 20.144H117.691C117.723 20.6347 117.856 21.0027 118.091 21.248C118.336 21.4827 118.646 21.6 119.019 21.6C119.542 21.6 119.915 21.3653 120.139 20.896H123.483C123.344 21.5147 123.072 22.0693 122.667 22.56C122.272 23.04 121.771 23.4187 121.163 23.696C120.555 23.9733 119.883 24.112 119.147 24.112C118.262 24.112 117.472 23.9253 116.779 23.552C116.096 23.1787 115.558 22.6453 115.163 21.952C114.779 21.2587 114.587 20.4427 114.587 19.504C114.587 18.5653 114.779 17.7547 115.163 17.072C115.547 16.3787 116.08 15.8453 116.763 15.472C117.456 15.0987 118.251 14.912 119.147 14.912C120.032 14.912 120.816 15.0933 121.499 15.456C122.182 15.8187 122.715 16.3413 123.099 17.024C123.483 17.696 123.675 18.4907 123.675 19.408ZM120.475 18.624C120.475 18.24 120.347 17.9413 120.091 17.728C119.835 17.504 119.515 17.392 119.131 17.392C118.747 17.392 118.432 17.4987 118.187 17.712C117.942 17.9147 117.782 18.2187 117.707 18.624H120.475ZM130.831 14.944C131.865 14.944 132.687 15.2907 133.295 15.984C133.903 16.6667 134.207 17.5947 134.207 18.768V24H131.071V19.184C131.071 18.672 130.937 18.272 130.671 17.984C130.404 17.6853 130.047 17.536 129.599 17.536C129.129 17.536 128.761 17.6853 128.495 17.984C128.228 18.272 128.095 18.672 128.095 19.184V24H124.959V15.024H128.095V16.304C128.372 15.8987 128.745 15.5733 129.215 15.328C129.684 15.072 130.223 14.944 130.831 14.944ZM137.511 14.192C136.957 14.192 136.509 14.0427 136.167 13.744C135.837 13.4347 135.671 13.0507 135.671 12.592C135.671 12.1227 135.837 11.7333 136.167 11.424C136.509 11.1147 136.957 10.96 137.511 10.96C138.055 10.96 138.493 11.1147 138.823 11.424C139.165 11.7333 139.335 12.1227 139.335 12.592C139.335 13.0507 139.165 13.4347 138.823 13.744C138.493 14.0427 138.055 14.192 137.511 14.192ZM139.063 15.024V24H135.927V15.024H139.063Z" fill="#FEFEFE"/>
</svg>
